<?xml version="1.0" encoding="UTF-8" standalone="no"?>
<!-- Created with Inkscape (http://www.inkscape.org/) -->

<svg
   xmlns:dc="http://purl.org/dc/elements/1.1/"
   xmlns:cc="http://creativecommons.org/ns#"
   xmlns:rdf="http://www.w3.org/1999/02/22-rdf-syntax-ns#"
   xmlns:svg="http://www.w3.org/2000/svg"
   xmlns="http://www.w3.org/2000/svg"
   xmlns:sodipodi="http://sodipodi.sourceforge.net/DTD/sodipodi-0.dtd"
   xmlns:inkscape="http://www.inkscape.org/namespaces/inkscape"
   version="1.1"
   width="24"
   height="32"
   viewBox="0 0 24.000001 31.999998"
   id="Layer_1"
   xml:space="preserve"
   inkscape:version="0.48.4 r9939"
   sodipodi:docname="github.svg"><sodipodi:namedview
     pagecolor="#ffffff"
     bordercolor="#666666"
     borderopacity="1"
     objecttolerance="10"
     gridtolerance="10"
     guidetolerance="10"
     inkscape:pageopacity="0"
     inkscape:pageshadow="2"
     inkscape:window-width="1074"
     inkscape:window-height="709"
     id="namedview10"
     showgrid="false"
     inkscape:zoom="10.027998"
     inkscape:cx="12.037499"
     inkscape:cy="15.755887"
     inkscape:window-x="569"
     inkscape:window-y="289"
     inkscape:window-maximized="0"
     inkscape:current-layer="Layer_1" /><metadata
     id="metadata35"><rdf:RDF><cc:Work
         rdf:about=""><dc:format>image/svg+xml</dc:format><dc:type
           rdf:resource="http://purl.org/dc/dcmitype/StillImage" /><dc:title /></cc:Work></rdf:RDF></metadata><defs
     id="defs33" /><g
     transform="matrix(0.99787604,0,0,0.97630413,-0.01192935,1.7733247)"
     id="g3"><path
       d="m 12.037,3.9048903 c -6.039,0 -10.937,4.897 -10.937,10.9379997 0,4.832 3.134,8.931 7.48,10.378 0.547,0.1 0.747,-0.237 0.747,-0.527 0,-0.26 -0.009,-0.947 -0.015,-1.86 -3.042,0.661 -3.684,-1.466 -3.684,-1.466 -0.497,-1.264 -1.214,-1.6 -1.214,-1.6 -0.993,-0.679 0.075,-0.665 0.075,-0.665 1.098,0.077 1.675,1.127 1.675,1.127 0.976,1.671 2.56,1.189 3.183,0.909 0.099,-0.707 0.382,-1.189 0.694,-1.462 -2.429,-0.276 -4.982,-1.214 -4.982,-5.406 0,-1.194 0.426,-2.17 1.126,-2.935 -0.112,-0.277 -0.488,-1.3889997 0.107,-2.8949997 0,0 0.918,-0.294 3.008,1.121 0.872,-0.243 1.808,-0.364 2.738,-0.368 0.929,0.004 1.865,0.126 2.738,0.368 2.088,-1.415 3.005,-1.121 3.005,-1.121 0.597,1.506 0.221,2.6179997 0.109,2.8949997 0.701,0.765 1.124,1.741 1.124,2.935 0,4.202 -2.557,5.126 -4.994,5.397 0.393,0.338 0.743,1.005 0.743,2.025 0,1.462 -0.013,2.642 -0.013,3 0,0.292 0.197,0.633 0.752,0.526 4.342,-1.449 7.473,-5.546 7.473,-10.377 C 22.976,8.8008903 18.078,3.9048903 12.037,3.9048903 z"
       id="path5"
       style="fill:#231f20;fill-rule:evenodd;stroke:#231f20;stroke-width:2.20000005;stroke-miterlimit:10"
       inkscape:connector-curvature="0" /><g
       id="g7" /></g><g
     transform="matrix(0.99787604,0,0,0.97630413,-56.778103,3.0648679)"
     id="g17"><path
       d="m 68.924,2.582 c -6.039,0 -10.937,4.897 -10.937,10.938 0,4.832 3.134,8.931 7.48,10.378 0.547,0.1 0.747,-0.237 0.747,-0.527 0,-0.26 -0.009,-0.947 -0.015,-1.86 -3.042,0.661 -3.684,-1.466 -3.684,-1.466 -0.497,-1.264 -1.214,-1.6 -1.214,-1.6 -0.993,-0.679 0.075,-0.665 0.075,-0.665 1.098,0.077 1.675,1.127 1.675,1.127 0.976,1.671 2.56,1.189 3.183,0.909 0.099,-0.707 0.382,-1.189 0.694,-1.462 -2.429,-0.276 -4.982,-1.214 -4.982,-5.406 0,-1.194 0.426,-2.17 1.126,-2.935 -0.112,-0.277 -0.488,-1.389 0.107,-2.895 0,0 0.918,-0.294 3.008,1.121 0.872,-0.243 1.808,-0.364 2.738,-0.368 0.929,0.004 1.865,0.126 2.738,0.368 2.088,-1.415 3.005,-1.121 3.005,-1.121 0.597,1.506 0.221,2.618 0.109,2.895 0.701,0.765 1.124,1.741 1.124,2.935 0,4.202 -2.557,5.126 -4.994,5.397 0.393,0.338 0.743,1.005 0.743,2.025 0,1.462 -0.013,2.642 -0.013,3 0,0.292 0.197,0.633 0.752,0.526 4.342,-1.449 7.473,-5.546 7.473,-10.377 C 79.863,7.478 74.965,2.582 68.924,2.582 z"
       id="path19"
       style="fill:#ffffff;fill-rule:evenodd"
       inkscape:connector-curvature="0" /></g></svg>