<?xml version="1.0" encoding="UTF-8" standalone="no"?>
<!-- Created with Inkscape (http://www.inkscape.org/) -->

<svg
   xmlns:dc="http://purl.org/dc/elements/1.1/"
   xmlns:cc="http://creativecommons.org/ns#"
   xmlns:rdf="http://www.w3.org/1999/02/22-rdf-syntax-ns#"
   xmlns:svg="http://www.w3.org/2000/svg"
   xmlns="http://www.w3.org/2000/svg"
   xmlns:sodipodi="http://sodipodi.sourceforge.net/DTD/sodipodi-0.dtd"
   xmlns:inkscape="http://www.inkscape.org/namespaces/inkscape"
   version="1.1"
   width="27.209999"
   height="32"
   viewBox="0 0 27.21 32.000002"
   id="Layer_1"
   xml:space="preserve"
   inkscape:version="0.48.4 r9939"
   sodipodi:docname="logo.svg"><sodipodi:namedview
     pagecolor="#ffffff"
     bordercolor="#666666"
     borderopacity="1"
     objecttolerance="10"
     gridtolerance="10"
     guidetolerance="10"
     inkscape:pageopacity="0"
     inkscape:pageshadow="2"
     inkscape:window-width="870"
     inkscape:window-height="580"
     id="namedview19"
     showgrid="false"
     fit-margin-top="0"
     fit-margin-left="0"
     fit-margin-right="0"
     fit-margin-bottom="0"
     inkscape:showpageshadow="false"
     inkscape:zoom="7.2041274"
     inkscape:cx="13.602999"
     inkscape:cy="9.971943"
     inkscape:window-x="654"
     inkscape:window-y="378"
     inkscape:window-maximized="0"
     inkscape:current-layer="Layer_1" /><metadata
     id="metadata35"><rdf:RDF><cc:Work
         rdf:about=""><dc:format>image/svg+xml</dc:format><dc:type
           rdf:resource="http://purl.org/dc/dcmitype/StillImage" /><dc:title /></cc:Work></rdf:RDF></metadata><defs
     id="defs33" /><g
     id="g3"
     transform="matrix(0.95484154,0,0,0.97755822,0.66129122,-0.0114264)"><rect
       width="25.205999"
       height="0.60500002"
       x="1"
       y="21.375"
       id="rect5"
       style="fill:#ffffff;stroke:#000000;stroke-width:2;stroke-linejoin:round;stroke-miterlimit:10" /><g
       id="g7"><path
         d="m 5.266,13.321 c 1.525,0.996 3.337,1.577 5.283,1.577 6.34,0 9.807,-5.346 9.807,-9.983 0,-0.152 -0.004,-0.304 -0.01,-0.454 C 21.02,3.966 21.603,3.348 22.066,2.645 21.448,2.924 20.783,3.113 20.087,3.197 20.798,2.763 21.345,2.076 21.602,1.256 20.936,1.659 20.199,1.95 19.413,2.108 18.784,1.426 17.889,1 16.897,1 c -1.903,0 -3.446,1.571 -3.446,3.508 0,0.275 0.03,0.543 0.089,0.8 C 10.676,5.162 8.136,3.765 6.436,1.642 6.139,2.161 5.969,2.763 5.969,3.406 c 0,1.217 0.609,2.291 1.533,2.92 C 6.937,6.308 6.405,6.151 5.941,5.887 c 0,0.015 0,0.029 0,0.044 0,1.7 1.188,3.118 2.765,3.44 -0.29,0.082 -0.595,0.124 -0.909,0.124 -0.222,0 -0.438,-0.022 -0.649,-0.063 0.439,1.394 1.711,2.408 3.22,2.436 C 9.188,12.809 7.702,13.37 6.088,13.37 5.81,13.371 5.535,13.354 5.266,13.321 z"
         id="path9"
         style="fill:#ffffff;stroke:#000000;stroke-width:2;stroke-linejoin:round;stroke-miterlimit:10"
         inkscape:connector-curvature="0" /><path
         d="M 12.667,22.447 H 1.61 c 2.697,5.791 8.989,7.629 8.989,7.629 0,0 -0.261,0.467 -1.738,0.467 v 1.215 h 3.806 5.804 v -1.215 c -1.477,0 -1.738,-0.467 -1.738,-0.467 0,0 6.291,-1.839 8.989,-7.629 H 14.665 12.667 z m -3.541,3.851 c 0,0.085 -0.121,0.154 -0.27,0.154 -0.149,0 -0.269,-0.069 -0.269,-0.154 v -2.034 c 0,-0.085 0.121,-0.154 0.269,-0.154 0.149,0 0.27,0.069 0.27,0.154 v 2.034 z m 4.809,0.907 c 0,0.12 -0.121,0.218 -0.269,0.218 -0.149,0 -0.27,-0.097 -0.27,-0.218 v -2.877 c 0,-0.12 0.121,-0.217 0.27,-0.217 0.149,0 0.269,0.097 0.269,0.217 v 2.877 z m 4.271,-2.941 c 0,-0.085 0.121,-0.154 0.269,-0.154 0.149,0 0.27,0.069 0.27,0.154 v 2.034 c 0,0.085 -0.121,0.154 -0.27,0.154 -0.149,0 -0.269,-0.069 -0.269,-0.154 v -2.034 z"
         id="path11"
         style="fill:#ffffff;stroke:#000000;stroke-width:2;stroke-linejoin:round;stroke-miterlimit:10"
         inkscape:connector-curvature="0" /><path
         d="m 22.143,17.58 c -1.833,-1.472 -3.576,-1.984 -5.181,-1.521 -1.611,0.464 -2.679,1.814 -3.296,2.873 -0.617,-1.059 -1.685,-2.409 -3.296,-2.873 -1.604,-0.464 -3.347,0.05 -5.182,1.521 -0.302,0.242 -0.35,0.683 -0.108,0.984 0.242,0.3 0.683,0.349 0.984,0.107 1.457,-1.169 2.774,-1.598 3.914,-1.27 2.028,0.581 3.018,3.347 3.027,3.375 0.005,0.015 0.016,0.027 0.022,0.041 0.012,0.028 0.027,0.052 0.043,0.079 0.028,0.047 0.059,0.09 0.097,0.128 0.02,0.021 0.04,0.042 0.063,0.06 0.052,0.042 0.109,0.075 0.171,0.101 0.013,0.006 0.023,0.017 0.036,0.021 0.004,0.001 0.007,0.001 0.011,0.002 0.05,0.016 0.103,0.022 0.156,0.027 0.021,0.002 0.042,0.011 0.063,0.011 0.077,0 0.152,-0.015 0.224,-0.039 0.002,-0.001 0.004,0 0.006,-0.001 0.008,-0.003 0.013,-0.009 0.02,-0.012 0.07,-0.027 0.134,-0.065 0.192,-0.113 0.02,-0.016 0.037,-0.034 0.055,-0.052 0.04,-0.041 0.073,-0.086 0.102,-0.136 0.015,-0.025 0.029,-0.048 0.04,-0.075 0.006,-0.015 0.017,-0.027 0.023,-0.043 0.009,-0.027 1.017,-2.794 3.022,-3.372 1.141,-0.327 2.46,0.099 3.917,1.269 0.302,0.242 0.742,0.193 0.984,-0.107 0.241,-0.302 0.193,-0.743 -0.109,-0.985 z"
         id="path13"
         style="fill:#ffffff;stroke:#000000;stroke-width:2;stroke-linejoin:round;stroke-miterlimit:10"
         inkscape:connector-curvature="0" /></g></g><g
     id="g15"
     transform="matrix(0.95484154,0,0,0.97755822,0.66129122,-0.0114264)"><g
       id="g17"><path
         d="m 5.266,13.321 c 1.525,0.996 3.337,1.577 5.283,1.577 6.34,0 9.807,-5.346 9.807,-9.983 0,-0.152 -0.004,-0.304 -0.01,-0.454 C 21.02,3.966 21.603,3.348 22.066,2.645 21.448,2.924 20.783,3.113 20.087,3.197 20.798,2.763 21.345,2.076 21.602,1.256 20.936,1.659 20.199,1.95 19.413,2.108 18.784,1.426 17.889,1 16.897,1 c -1.903,0 -3.446,1.571 -3.446,3.508 0,0.275 0.03,0.543 0.089,0.8 C 10.676,5.162 8.136,3.765 6.436,1.642 6.139,2.161 5.969,2.763 5.969,3.406 c 0,1.217 0.609,2.291 1.533,2.92 C 6.937,6.308 6.405,6.151 5.941,5.887 c 0,0.015 0,0.029 0,0.044 0,1.7 1.188,3.118 2.765,3.44 -0.29,0.082 -0.595,0.124 -0.909,0.124 -0.222,0 -0.438,-0.022 -0.649,-0.063 0.439,1.394 1.711,2.408 3.22,2.436 C 9.188,12.809 7.702,13.37 6.088,13.37 5.81,13.371 5.535,13.354 5.266,13.321 z"
         id="path19"
         style="fill:#ffffff"
         inkscape:connector-curvature="0" /><path
         d="M 12.667,21.575 H 1.331 c 2.697,5.791 9.268,8.501 9.268,8.501 0,0 -0.261,0.467 -1.738,0.467 v 1.215 h 3.806 5.804 v -1.215 c -1.477,0 -1.738,-0.467 -1.738,-0.467 0,0 6.57,-2.711 9.268,-8.501 H 14.665 12.667 z m -3.541,4.723 c 0,0.085 -0.121,0.154 -0.27,0.154 -0.149,0 -0.269,-0.069 -0.269,-0.154 v -2.034 c 0,-0.085 0.121,-0.154 0.269,-0.154 0.149,0 0.27,0.069 0.27,0.154 v 2.034 z m 4.809,0.907 c 0,0.12 -0.121,0.218 -0.269,0.218 -0.149,0 -0.27,-0.097 -0.27,-0.218 v -2.877 c 0,-0.12 0.121,-0.217 0.27,-0.217 0.149,0 0.269,0.097 0.269,0.217 v 2.877 z m 4.271,-2.941 c 0,-0.085 0.121,-0.154 0.269,-0.154 0.149,0 0.27,0.069 0.27,0.154 v 2.034 c 0,0.085 -0.121,0.154 -0.27,0.154 -0.149,0 -0.269,-0.069 -0.269,-0.154 v -2.034 z"
         id="path21"
         style="fill:#ffffff"
         inkscape:connector-curvature="0" /><path
         d="m 22.143,17.58 c -1.833,-1.472 -3.576,-1.984 -5.181,-1.521 -1.611,0.464 -2.679,1.814 -3.296,2.873 -0.617,-1.059 -1.685,-2.409 -3.296,-2.873 -1.604,-0.464 -3.347,0.05 -5.182,1.521 -0.302,0.242 -0.35,0.683 -0.108,0.984 0.242,0.3 0.683,0.349 0.984,0.107 1.457,-1.169 2.774,-1.598 3.914,-1.27 2.028,0.581 3.018,3.347 3.027,3.375 0.005,0.015 0.016,0.027 0.022,0.041 0.012,0.028 0.027,0.052 0.043,0.079 0.028,0.047 0.059,0.09 0.097,0.128 0.02,0.021 0.04,0.042 0.063,0.06 0.052,0.042 0.109,0.075 0.171,0.101 0.013,0.006 0.023,0.017 0.036,0.021 0.004,0.001 0.007,0.001 0.011,0.002 0.05,0.016 0.103,0.022 0.156,0.027 0.021,0.002 0.042,0.011 0.063,0.011 0.077,0 0.152,-0.015 0.224,-0.039 0.002,-0.001 0.004,0 0.006,-0.001 0.008,-0.003 0.013,-0.009 0.02,-0.012 0.07,-0.027 0.134,-0.065 0.192,-0.113 0.02,-0.016 0.037,-0.034 0.055,-0.052 0.04,-0.041 0.073,-0.086 0.102,-0.136 0.015,-0.025 0.029,-0.048 0.04,-0.075 0.006,-0.015 0.017,-0.027 0.023,-0.043 0.009,-0.027 1.017,-2.794 3.022,-3.372 1.141,-0.327 2.46,0.099 3.917,1.269 0.302,0.242 0.742,0.193 0.984,-0.107 0.241,-0.302 0.193,-0.743 -0.109,-0.985 z"
         id="path23"
         style="fill:#ffffff"
         inkscape:connector-curvature="0" /></g></g><line
     stroke-miterlimit="10"
     x1="18.301989"
     y1="23.900625"
     x2="18.301989"
     y2="25.896799"
     id="line25"
     style="fill:none;stroke:#000000;stroke-width:1.93226624;stroke-linecap:round;stroke-linejoin:round;stroke-miterlimit:10" /><line
     stroke-miterlimit="10"
     x1="9.1106853"
     y1="23.900625"
     x2="9.1106853"
     y2="25.896799"
     id="line27"
     style="fill:none;stroke:#000000;stroke-width:1.93226624;stroke-linecap:round;stroke-linejoin:round;stroke-miterlimit:10" /><line
     stroke-miterlimit="10"
     x1="13.710156"
     y1="23.900625"
     x2="13.710156"
     y2="26.703283"
     id="line29"
     style="fill:none;stroke:#000000;stroke-width:1.93226624;stroke-linecap:round;stroke-linejoin:round;stroke-miterlimit:10" /></svg>