<svg xmlns="http://www.w3.org/2000/svg" width="24" height="32" viewBox="0 0 24.000001 31.999998"><g transform="matrix(.998 0 0 .976 -.012 1.773)"><path d="M12.037 3.905c-6.039 0-10.937 4.897-10.937 10.938 0 4.832 3.134 8.931 7.48 10.378.547.1.747-.237.747-.527l-.015-1.86c-3.042.661-3.684-1.466-3.684-1.466-.497-1.264-1.214-1.6-1.214-1.6-.993-.679.075-.665.075-.665 1.098.077 1.675 1.127 1.675 1.127.976 1.671 2.56 1.189 3.183.909.099-.707.382-1.189.694-1.462-2.429-.276-4.982-1.214-4.982-5.406 0-1.194.426-2.17 1.126-2.935-.112-.277-.488-1.389.107-2.895 0 0 .918-.294 3.008 1.121.872-.243 1.808-.364 2.738-.368.929.004 1.865.126 2.738.368 2.088-1.415 3.005-1.121 3.005-1.121.597 1.506.221 2.618.109 2.895.701.765 1.124 1.741 1.124 2.935 0 4.202-2.557 5.126-4.994 5.397.393.338.743 1.005.743 2.025 0 1.462-.013 2.642-.013 3 0 .292.197.633.752.526 4.342-1.449 7.473-5.546 7.473-10.377.001-6.041-4.897-10.937-10.938-10.937z" fill="#231f20" fill-rule="evenodd" stroke="#231f20" stroke-width="2.2" stroke-miterlimit="10"/></g><path d="M12 5.586c-6.026 0-10.914 4.781-10.914 10.679 0 4.718 3.127 8.719 7.464 10.132.546.098.745-.231.745-.515l-.015-1.816c-3.036.645-3.676-1.431-3.676-1.431-.496-1.234-1.211-1.562-1.211-1.562-.991-.663.075-.649.075-.649 1.096.075 1.671 1.1 1.671 1.1.974 1.631 2.555 1.161 3.176.887.099-.69.381-1.161.693-1.427-2.424-.269-4.971-1.185-4.971-5.278 0-1.166.425-2.119 1.124-2.865-.112-.27-.487-1.356.107-2.826 0 0 .916-.287 3.002 1.094.87-.237 1.804-.355 2.732-.359.927.004 1.861.123 2.732.359 2.084-1.381 2.999-1.094 2.999-1.094.596 1.47.221 2.556.109 2.826.7.747 1.122 1.7 1.122 2.865 0 4.102-2.552 5.005-4.983 5.269.392.33.741.981.741 1.977 0 1.427-.013 2.579-.013 2.929 0 .285.197.618.75.514 4.333-1.415 7.457-5.415 7.457-10.131.001-5.898-4.887-10.678-10.915-10.678z" fill="#fff" fill-rule="evenodd"/></svg>