<svg xmlns="http://www.w3.org/2000/svg" width="27.21" height="32" viewBox="0 0 27.21 32.000002"><g transform="matrix(.955 0 0 .978 .661 -.011)" fill="#fff" stroke="#000" stroke-width="2" stroke-linejoin="round" stroke-miterlimit="10"><rect width="25.206" height=".605" x="1" y="21.375"/><g><path d="M5.266 13.321c1.525.996 3.337 1.577 5.283 1.577 6.34 0 9.807-5.346 9.807-9.983l-.01-.454c.674-.495 1.257-1.113 1.72-1.816-.618.279-1.283.468-1.979.552.711-.434 1.258-1.121 1.515-1.941-.666.403-1.403.694-2.189.852-.629-.682-1.524-1.108-2.516-1.108-1.903 0-3.446 1.571-3.446 3.508 0 .275.03.543.089.8-2.864-.146-5.404-1.543-7.104-3.666-.297.519-.467 1.121-.467 1.764 0 1.217.609 2.291 1.533 2.92-.565-.018-1.097-.175-1.561-.439v.044c0 1.7 1.188 3.118 2.765 3.44-.29.082-.595.124-.909.124-.222 0-.438-.022-.649-.063.439 1.394 1.711 2.408 3.22 2.436-1.18.941-2.666 1.502-4.28 1.502-.278.001-.553-.016-.822-.049z"/><path d="M12.667 22.447h-11.057c2.697 5.791 8.989 7.629 8.989 7.629s-.261.467-1.738.467v1.215h9.61v-1.215c-1.477 0-1.738-.467-1.738-.467s6.291-1.839 8.989-7.629h-13.055zm-3.541 3.851c0 .085-.121.154-.27.154-.149 0-.269-.069-.269-.154v-2.034c0-.085.121-.154.269-.154.149 0 .27.069.27.154v2.034zm4.809.907c0 .12-.121.218-.269.218-.149 0-.27-.097-.27-.218v-2.877c0-.12.121-.217.27-.217.149 0 .269.097.269.217v2.877zm4.271-2.941c0-.085.121-.154.269-.154.149 0 .27.069.27.154v2.034c0 .085-.121.154-.27.154-.149 0-.269-.069-.269-.154v-2.034z"/><path d="M22.143 17.58c-1.833-1.472-3.576-1.984-5.181-1.521-1.611.464-2.679 1.814-3.296 2.873-.617-1.059-1.685-2.409-3.296-2.873-1.604-.464-3.347.05-5.182 1.521-.302.242-.35.683-.108.984.242.3.683.349.984.107 1.457-1.169 2.774-1.598 3.914-1.27 2.028.581 3.018 3.347 3.027 3.375l.022.041.043.079.097.128.063.06.171.101.036.021.011.002.156.027.063.011.224-.039.006-.001.02-.012.192-.113.055-.052.102-.136.04-.075.023-.043c.009-.027 1.017-2.794 3.022-3.372 1.141-.327 2.46.099 3.917 1.269.302.242.742.193.984-.107.241-.302.193-.743-.109-.985z"/></g></g><g fill="#fff" transform="matrix(.955 0 0 .978 .661 -.011)"><path d="M5.266 13.321c1.525.996 3.337 1.577 5.283 1.577 6.34 0 9.807-5.346 9.807-9.983l-.01-.454c.674-.495 1.257-1.113 1.72-1.816-.618.279-1.283.468-1.979.552.711-.434 1.258-1.121 1.515-1.941-.666.403-1.403.694-2.189.852-.629-.682-1.524-1.108-2.516-1.108-1.903 0-3.446 1.571-3.446 3.508 0 .275.03.543.089.8-2.864-.146-5.404-1.543-7.104-3.666-.297.519-.467 1.121-.467 1.764 0 1.217.609 2.291 1.533 2.92-.565-.018-1.097-.175-1.561-.439v.044c0 1.7 1.188 3.118 2.765 3.44-.29.082-.595.124-.909.124-.222 0-.438-.022-.649-.063.439 1.394 1.711 2.408 3.22 2.436-1.18.941-2.666 1.502-4.28 1.502-.278.001-.553-.016-.822-.049z"/><path d="M12.667 21.575h-11.336c2.697 5.791 9.268 8.501 9.268 8.501s-.261.467-1.738.467v1.215h9.61v-1.215c-1.477 0-1.738-.467-1.738-.467s6.57-2.711 9.268-8.501h-13.334zm-3.541 4.723c0 .085-.121.154-.27.154-.149 0-.269-.069-.269-.154v-2.034c0-.085.121-.154.269-.154.149 0 .27.069.27.154v2.034zm4.809.907c0 .12-.121.218-.269.218-.149 0-.27-.097-.27-.218v-2.877c0-.12.121-.217.27-.217.149 0 .269.097.269.217v2.877zm4.271-2.941c0-.085.121-.154.269-.154.149 0 .27.069.27.154v2.034c0 .085-.121.154-.27.154-.149 0-.269-.069-.269-.154v-2.034z"/><path d="M22.143 17.58c-1.833-1.472-3.576-1.984-5.181-1.521-1.611.464-2.679 1.814-3.296 2.873-.617-1.059-1.685-2.409-3.296-2.873-1.604-.464-3.347.05-5.182 1.521-.302.242-.35.683-.108.984.242.3.683.349.984.107 1.457-1.169 2.774-1.598 3.914-1.27 2.028.581 3.018 3.347 3.027 3.375l.022.041.043.079.097.128.063.06.171.101.036.021.011.002.156.027.063.011.224-.039.006-.001.02-.012.192-.113.055-.052.102-.136.04-.075.023-.043c.009-.027 1.017-2.794 3.022-3.372 1.141-.327 2.46.099 3.917 1.269.302.242.742.193.984-.107.241-.302.193-.743-.109-.985z"/></g><line stroke-miterlimit="10" x1="18.302" y1="23.901" x2="18.302" y2="25.897" stroke="#000" stroke-width="1.932" stroke-linecap="round" stroke-linejoin="round" fill="none"/><line stroke-miterlimit="10" x1="9.111" y1="23.901" x2="9.111" y2="25.897" stroke="#000" stroke-width="1.932" stroke-linecap="round" stroke-linejoin="round" fill="none"/><line stroke-miterlimit="10" x1="13.71" y1="23.901" x2="13.71" y2="26.703" stroke="#000" stroke-width="1.932" stroke-linecap="round" stroke-linejoin="round" fill="none"/></svg>